<svg width="18.000000" height="18.000000" viewBox="0 0 18 18" fill="none" xmlns="http://www.w3.org/2000/svg" xmlns:xlink="http://www.w3.org/1999/xlink">
	<desc>
			Created with Pixso.
	</desc>
	<defs>
		<clipPath id="clip28_508">
			<rect id="Telegram" rx="9.000000" width="18.000000" height="18.000000" fill="white" fill-opacity="0"/>
		</clipPath>
		<linearGradient x1="9.000000" y1="0.000000" x2="9.000000" y2="17.866501" id="paint_linear_28_508_0" gradientUnits="userSpaceOnUse">
			<stop stop-color="#2AABEE"/>
			<stop offset="1.000000" stop-color="#229ED9"/>
		</linearGradient>
	</defs>
	<rect id="Telegram" rx="9.000000" width="18.000000" height="18.000000" fill="url(#paint_linear_28_508_0)" fill-opacity="1.000000"/>
	<g clip-path="url(#clip28_508)">
		<path id="Vector" d="M4.07 8.9C6.69 7.76 8.44 7 9.32 6.64C11.82 5.6 12.34 5.42 12.67 5.41C12.75 5.41 12.92 5.43 13.02 5.52C13.11 5.59 13.14 5.69 13.15 5.76C13.16 5.83 13.18 5.99 13.17 6.12C13.03 7.54 12.45 10.99 12.15 12.59C12.02 13.26 11.77 13.49 11.53 13.51C11.01 13.56 10.61 13.16 10.11 12.83C9.31 12.31 8.87 11.99 8.1 11.48C7.21 10.9 7.79 10.58 8.29 10.05C8.42 9.91 10.73 7.82 10.77 7.63C10.78 7.6 10.78 7.51 10.73 7.47C10.68 7.42 10.6 7.44 10.54 7.45C10.46 7.47 9.2 8.3 6.75 9.96C6.39 10.21 6.06 10.33 5.77 10.32C5.45 10.31 4.83 10.14 4.37 9.99C3.81 9.81 3.36 9.71 3.4 9.4C3.42 9.24 3.64 9.07 4.07 8.9Z" fill="#FFFFFF" fill-opacity="1.000000" fill-rule="evenodd"/>
	</g>
</svg>
