<svg width="16.275879" height="22.000076" viewBox="0 0 16.2759 22.0001" fill="none" xmlns="http://www.w3.org/2000/svg" xmlns:xlink="http://www.w3.org/1999/xlink">
	<desc>
			Created with Pixso.
	</desc>
	<defs/>
	<path id="Vector" d="M8.13 10.53C6.82 10.53 5.75 9.46 5.75 8.15C5.75 6.83 6.82 5.77 8.13 5.77C9.45 5.77 10.51 6.83 10.51 8.15C10.51 9.46 9.45 10.53 8.13 10.53Z" stroke="#CA5A52" stroke-opacity="1.000000" stroke-width="2.000000" stroke-linejoin="round"/>
	<path id="Vector" d="M14.52 4.95C14.03 3.96 13.31 3.1 12.43 2.43C11.54 1.77 10.52 1.31 9.43 1.11C8.34 0.91 7.21 0.97 6.15 1.28C5.09 1.58 4.11 2.13 3.29 2.89C2.48 3.64 1.85 4.57 1.46 5.6C1.07 6.64 0.92 7.75 1.03 8.85C1.14 9.96 1.51 11.02 2.1 11.95L3.02 13.38L8.13 21L13.25 13.38L14.16 11.95C14.89 10.82 15.27 9.5 15.27 8.15C15.27 7.04 15.02 5.95 14.52 4.95Z" stroke="#CA5A52" stroke-opacity="1.000000" stroke-width="2.000000" stroke-linejoin="round"/>
</svg>
