<svg width="20.000000" height="20.000000" viewBox="0 0 20 20" fill="none" xmlns="http://www.w3.org/2000/svg" xmlns:xlink="http://www.w3.org/1999/xlink">
	<desc>
			Created with Pixso.
	</desc>
	<defs>
		<clipPath id="clip9_109">
			<rect id="phone" width="20.000000" height="20.000000" fill="white" fill-opacity="0"/>
		</clipPath>
	</defs>
	<g clip-path="url(#clip9_109)">
		<path id="Vector" d="M18.33 16.6C18.33 16.83 18.28 17.06 18.19 17.27C18.1 17.48 17.96 17.67 17.79 17.83C17.62 17.99 17.42 18.11 17.2 18.18C16.98 18.25 16.74 18.28 16.51 18.26C13.95 17.98 11.48 17.11 9.32 15.7C7.31 14.42 5.6 12.72 4.32 10.7C2.91 8.53 2.04 6.05 1.76 3.48C1.74 3.25 1.77 3.02 1.84 2.8C1.92 2.58 2.03 2.38 2.19 2.2C2.35 2.03 2.54 1.9 2.75 1.8C2.96 1.71 3.19 1.66 3.42 1.66L5.92 1.66C6.32 1.66 6.72 1.8 7.02 2.06C7.33 2.33 7.53 2.69 7.59 3.09C7.69 3.9 7.89 4.68 8.17 5.44C8.28 5.73 8.31 6.06 8.24 6.37C8.17 6.68 8.02 6.97 7.79 7.2L6.74 8.25C7.92 10.34 9.65 12.07 11.74 13.25L12.8 12.2C13.02 11.97 13.31 11.82 13.62 11.75C13.93 11.68 14.26 11.71 14.55 11.82C15.31 12.1 16.09 12.3 16.9 12.4C17.3 12.46 17.67 12.66 17.93 12.98C18.2 13.29 18.34 13.69 18.33 14.1L18.33 16.6Z" stroke="#CA5A52" stroke-opacity="1.000000" stroke-width="2.000000" stroke-linejoin="round"/>
	</g>
</svg>
