<svg width="20.000000" height="20.000000" viewBox="0 0 20 20" fill="none" xmlns="http://www.w3.org/2000/svg" xmlns:xlink="http://www.w3.org/1999/xlink">
	<desc>
			Created with Pixso.
	</desc>
	<defs>
		<linearGradient x1="10.001837" y1="19.652082" x2="10.001837" y2="0.346279" id="paint_linear_9_92_0" gradientUnits="userSpaceOnUse">
			<stop stop-color="#20B038"/>
			<stop offset="1.000000" stop-color="#60D66A"/>
		</linearGradient>
		<linearGradient x1="10.001945" y1="19.998114" x2="10.001945" y2="0.000000" id="paint_linear_9_93_0" gradientUnits="userSpaceOnUse">
			<stop stop-color="#F9F9F9"/>
			<stop offset="1.000000" stop-color="#FFFFFF"/>
		</linearGradient>
	</defs>
	<path id="Vector" d="M0 20L1.41 14.86C0.53 13.36 0.08 11.65 0.08 9.9C0.08 4.44 4.55 0 10.04 0C12.7 0 15.21 1.03 17.08 2.9C18.96 4.77 20 7.26 20 9.91C20 15.38 15.53 19.82 10.03 19.82L10.03 19.82C8.36 19.82 6.72 19.4 5.27 18.61L0 20ZM5.52 16.82L5.82 17C7.09 17.75 8.55 18.15 10.03 18.15L10.04 18.15C14.6 18.15 18.31 14.46 18.31 9.91C18.31 7.71 17.45 5.65 15.89 4.09C14.33 2.53 12.25 1.67 10.04 1.67C5.48 1.67 1.76 5.36 1.76 9.9C1.76 11.46 2.2 12.98 3.03 14.29L3.22 14.6L2.39 17.64L5.52 16.82Z" fill="#FFFFFF" fill-opacity="1.000000" fill-rule="nonzero"/>
	<path id="Vector" d="M0.34 19.65L1.71 14.69C0.86 13.24 0.42 11.59 0.42 9.91C0.42 4.63 4.74 0.34 10.04 0.34C12.61 0.34 15.02 1.34 16.84 3.15C18.65 4.95 19.65 7.36 19.65 9.91C19.65 15.19 15.33 19.48 10.04 19.48L10.03 19.48C8.42 19.48 6.84 19.08 5.44 18.32L0.34 19.65Z" fill="url(#paint_linear_9_92_0)" fill-opacity="1.000000" fill-rule="nonzero"/>
	<path id="Vector" d="M0 20L1.41 14.86C0.53 13.36 0.08 11.65 0.08 9.9C0.08 4.44 4.55 0 10.04 0C12.7 0 15.21 1.03 17.08 2.9C18.96 4.77 20 7.26 20 9.91C20 15.38 15.53 19.82 10.03 19.82L10.03 19.82C8.36 19.82 6.72 19.4 5.27 18.61L0 20ZM5.52 16.82L5.82 17C7.09 17.75 8.55 18.15 10.03 18.15L10.04 18.15C14.6 18.15 18.31 14.46 18.31 9.91C18.31 7.71 17.45 5.65 15.89 4.09C14.33 2.53 12.25 1.67 10.04 1.67C5.48 1.67 1.76 5.36 1.76 9.9C1.76 11.46 2.2 12.98 3.03 14.29L3.22 14.6L2.39 17.64L5.52 16.82Z" fill="url(#paint_linear_9_93_0)" fill-opacity="1.000000" fill-rule="nonzero"/>
	<path id="Vector" d="M7.55 5.76C7.36 5.35 7.17 5.34 6.99 5.33C6.85 5.33 6.68 5.33 6.51 5.33C6.35 5.33 6.08 5.39 5.85 5.64C5.62 5.88 4.98 6.48 4.98 7.7C4.98 8.92 5.87 10.1 6 10.27C6.12 10.43 7.72 13.01 10.25 14.01C12.35 14.83 12.78 14.67 13.23 14.62C13.69 14.58 14.7 14.03 14.91 13.45C15.12 12.87 15.12 12.37 15.06 12.27C14.99 12.16 14.83 12.1 14.58 11.98C14.33 11.85 13.11 11.25 12.88 11.17C12.65 11.09 12.48 11.05 12.32 11.29C12.15 11.54 11.68 12.1 11.53 12.26C11.39 12.43 11.24 12.45 10.99 12.32C10.74 12.2 9.94 11.94 8.99 11.09C8.25 10.44 7.75 9.62 7.61 9.38C7.46 9.13 7.59 9 7.72 8.87C7.83 8.76 7.97 8.58 8.09 8.44C8.21 8.3 8.26 8.19 8.34 8.03C8.42 7.86 8.38 7.72 8.32 7.59C8.26 7.48 7.77 6.25 7.55 5.76Z" fill="#FFFFFF" fill-opacity="1.000000" fill-rule="evenodd"/>
</svg>
