<svg width="179.000000" height="50.000000" viewBox="0 0 179 50" fill="none" xmlns="http://www.w3.org/2000/svg" xmlns:xlink="http://www.w3.org/1999/xlink">
	<desc>
			Created with Pixso.
	</desc>
	<defs>
		<clipPath id="clip28_514">
			<rect id="Frame" width="179.000000" height="50.000000" fill="white" fill-opacity="0"/>
		</clipPath>
	</defs>
	<rect id="Frame" width="179.000000" height="50.000000" fill="#FFFFFF" fill-opacity="0"/>
	<g clip-path="url(#clip28_514)">
		<path id="Vector" d="M119.33 13.38L179 13.38L172.68 37.32L113.01 37.32L119.33 13.38Z" fill="#B41308" fill-opacity="1.000000" fill-rule="nonzero"/>
		<path id="Vector" d="M20.77 33.8L25.23 17.04L37.02 17.04L35.95 21.11L28.79 21.11L25.4 33.8L20.77 33.8Z" fill="#202124" fill-opacity="1.000000" fill-rule="nonzero"/>
		<path id="Vector" d="M33.95 33.8L38.44 17.04L43.9 17.04C46.54 17.04 48.45 17.63 49.63 18.81C50.5 19.69 50.94 20.83 50.94 22.23C50.94 24.29 50.18 25.94 48.65 27.17C47.14 28.38 45.13 28.99 42.64 28.99L39.89 28.99L38.6 33.8L33.95 33.8ZM40.85 25.37L42.59 25.37C43.72 25.37 44.6 25.14 45.24 24.68C45.87 24.2 46.19 23.56 46.19 22.76C46.19 22.3 46.03 21.91 45.71 21.59C45.28 21.16 44.62 20.94 43.73 20.94L42.02 20.94L40.85 25.37Z" fill="#202124" fill-opacity="1.000000" fill-rule="nonzero"/>
		<path id="Vector" d="M46.84 33.8L58.46 16.92L63 16.92L65.6 33.8L60.73 33.8L60.32 30.8L53.88 30.8L51.87 33.8L46.84 33.8ZM56.22 27.19L59.94 27.19L59.34 22.38L56.22 27.19Z" fill="#202124" fill-opacity="1.000000" fill-rule="nonzero"/>
		<path id="Vector" d="M66.35 33.8L70.83 17.04L75.49 17.04L73.79 23.31L79.69 23.31L81.36 17.04L86.01 17.04L81.53 33.8L76.87 33.8L78.59 27.43L72.69 27.43L71 33.8L66.35 33.8Z" fill="#202124" fill-opacity="1.000000" fill-rule="nonzero"/>
		<path id="Vector" d="M87.82 33.8L91.24 21.11L86.22 21.11L87.32 17.04L101.95 17.04L100.88 21.11L95.87 21.11L92.48 33.8L87.82 33.8Z" fill="#202124" fill-opacity="1.000000" fill-rule="nonzero"/>
		<mask id="mask28_522" mask-type="alpha" maskUnits="userSpaceOnUse" x="0.000000" y="0.000000" width="37.990112" height="48.290070">
			<path id="Vector" d="M15.86 48.29C12.63 47.02 9.7 45.1 7.26 42.64C4.82 40.18 2.91 37.24 1.67 34C0.42 30.76 -0.14 27.29 0.02 23.82C0.18 20.36 1.07 16.96 2.61 13.85C4.15 10.74 6.32 7.99 8.98 5.77C11.65 3.55 14.74 1.91 18.07 0.96C21.4 0 24.89 -0.25 28.32 0.23C31.74 0.7 35.04 1.89 37.99 3.71L24.91 25L15.86 48.29Z" fill="#FFFFFF" fill-opacity="1.000000" fill-rule="nonzero"/>
		</mask>
		<g mask="url(#mask28_522)">
			<path id="Vector" d="M28.04 11.06C26.02 10.43 23.87 10.26 21.78 10.58C19.68 10.9 17.68 11.69 15.93 12.89C14.18 14.09 12.72 15.68 11.67 17.52C10.62 19.37 10 21.44 9.85 23.56C9.71 25.68 10.05 27.81 10.84 29.78C11.64 31.76 12.87 33.53 14.44 34.95C16.02 36.38 17.89 37.43 19.93 38.03L18.75 42.09C16.1 41.31 13.66 39.94 11.62 38.09C9.57 36.23 7.97 33.93 6.94 31.37C5.91 28.8 5.47 26.04 5.65 23.27C5.84 20.51 6.65 17.83 8.01 15.43C9.38 13.03 11.27 10.97 13.55 9.4C15.82 7.84 18.42 6.81 21.15 6.4C23.88 5.99 26.66 6.21 29.3 7.03C31.93 7.85 34.34 9.26 36.35 11.16L33.47 14.24C31.92 12.78 30.07 11.7 28.04 11.06Z" fill="#202124" fill-opacity="1.000000" fill-rule="evenodd"/>
			<path id="Vector" d="M0.62 22.48C0.6 21.7 1.21 21.05 1.98 21.03L6.19 20.91C6.97 20.89 7.61 21.5 7.64 22.28L7.79 27.91C7.82 28.69 7.21 29.33 6.43 29.36L2.22 29.48C1.44 29.5 0.8 28.89 0.78 28.11L0.62 22.48Z" fill="#202124" fill-opacity="1.000000" fill-rule="nonzero"/>
			<path id="Vector" d="M8.44 6.63C8.97 6.06 9.86 6.02 10.43 6.55L13.53 9.41C14.1 9.94 14.13 10.83 13.61 11.4L9.8 15.55C9.28 16.12 8.39 16.16 7.82 15.63L4.72 12.76C4.15 12.24 4.11 11.35 4.64 10.77L8.44 6.63Z" fill="#202124" fill-opacity="1.000000" fill-rule="nonzero"/>
			<path id="Vector" d="M24.82 0.84C25.59 0.76 26.28 1.33 26.36 2.1L26.79 6.31C26.87 7.08 26.31 7.77 25.54 7.85L19.95 8.43C19.18 8.51 18.49 7.95 18.41 7.17L17.98 2.97C17.9 2.2 18.46 1.5 19.23 1.42L24.82 0.84Z" fill="#202124" fill-opacity="1.000000" fill-rule="nonzero"/>
			<path id="Vector" d="M40.66 7.18C41.3 7.63 41.45 8.51 41 9.14L38.57 12.6C38.13 13.23 37.25 13.39 36.62 12.94L32.03 9.69C31.4 9.24 31.24 8.36 31.69 7.73L34.12 4.27C34.57 3.64 35.44 3.49 36.07 3.94L40.66 7.18Z" fill="#202124" fill-opacity="1.000000" fill-rule="nonzero"/>
			<path id="Vector" d="M5.29 39.49C4.74 38.95 4.73 38.05 5.27 37.5L8.21 34.47C8.75 33.92 9.64 33.9 10.19 34.45L14.21 38.38C14.77 38.93 14.78 39.82 14.24 40.37L11.3 43.4C10.76 43.96 9.87 43.97 9.31 43.42L5.29 39.49Z" fill="#202124" fill-opacity="1.000000" fill-rule="nonzero"/>
		</g>
		<path id="Vector" d="M125.32 31.91C124.23 31.91 123.3 31.61 122.56 31C121.81 30.38 121.43 29.54 121.43 28.49C121.43 27.12 121.94 26.03 122.96 25.23C123.98 24.42 125.3 24.01 126.92 24.01C128.28 24.01 129.73 24.24 131.29 24.68L131.39 24.37C131.48 23.93 131.53 23.55 131.53 23.25C131.53 21.59 130.42 20.76 128.21 20.76C127.05 20.76 125.89 20.97 124.73 21.4L124.39 19.85C125.71 19.34 127.08 19.08 128.5 19.08C130.04 19.08 131.24 19.42 132.08 20.11C132.92 20.78 133.34 21.72 133.34 22.94C133.34 23.43 133.26 24 133.11 24.64L131.24 31.65L129.43 31.65L129.93 29.71C128.67 31.18 127.14 31.91 125.32 31.91ZM125.92 30.45C126.99 30.45 127.98 30.11 128.9 29.42C129.84 28.74 130.46 27.86 130.74 26.79L130.98 25.93C129.61 25.56 128.28 25.38 127 25.38C125.91 25.38 125.03 25.65 124.35 26.19C123.66 26.73 123.32 27.43 123.32 28.28C123.32 28.93 123.55 29.46 124.01 29.86C124.49 30.25 125.13 30.45 125.92 30.45Z" fill="#FFFFFF" fill-opacity="1.000000" fill-rule="nonzero"/>
		<path id="Vector" d="M133.71 31.65L137.02 19.27L142.39 19.27C143.6 19.27 144.55 19.54 145.23 20.06C145.92 20.57 146.26 21.27 146.26 22.15C146.26 22.98 145.97 23.67 145.38 24.23C144.79 24.77 144.02 25.15 143.09 25.35C143.74 25.51 144.28 25.83 144.71 26.29C145.14 26.75 145.35 27.32 145.35 27.99C145.35 29.07 144.88 29.96 143.95 30.65C143.02 31.32 141.75 31.65 140.13 31.65L133.71 31.65ZM135.97 30.14L140.03 30.14C141.1 30.14 141.93 29.94 142.54 29.54C143.16 29.15 143.47 28.59 143.47 27.87C143.47 27.29 143.21 26.85 142.7 26.53C142.21 26.21 141.57 26.05 140.77 26.05L137.07 26.05L135.97 30.14ZM137.41 24.61L140.94 24.61C141.97 24.61 142.79 24.41 143.4 24.01C144.02 23.61 144.33 23.07 144.33 22.39C144.33 21.33 143.55 20.8 141.99 20.8L138.43 20.8L137.41 24.61Z" fill="#FFFFFF" fill-opacity="1.000000" fill-rule="nonzero"/>
		<path id="Vector" d="M149.1 31.65L151.99 20.88L147.55 20.88L147.98 19.3L158.62 19.3L158.19 20.88L153.83 20.88L150.94 31.65L149.1 31.65Z" fill="#FFFFFF" fill-opacity="1.000000" fill-rule="nonzero"/>
		<path id="Vector" d="M163.04 31.94C161.37 31.94 160.02 31.42 158.98 30.38C157.95 29.34 157.43 28.01 157.43 26.38C157.43 24.44 158.15 22.72 159.58 21.24C161.03 19.75 162.73 19.01 164.69 19.01C166.37 19.01 167.73 19.53 168.77 20.57C169.8 21.6 170.32 22.93 170.32 24.54C170.32 26.52 169.59 28.25 168.12 29.74C166.67 31.2 164.98 31.94 163.04 31.94ZM163.16 30.29C164.54 30.29 165.77 29.71 166.83 28.56C167.9 27.4 168.43 26.08 168.43 24.61C168.43 23.37 168.08 22.39 167.36 21.69C166.66 20.99 165.73 20.64 164.57 20.64C163.17 20.64 161.93 21.23 160.87 22.41C159.82 23.57 159.29 24.88 159.29 26.34C159.29 27.56 159.64 28.53 160.34 29.23C161.06 29.94 162 30.29 163.16 30.29Z" fill="#FFFFFF" fill-opacity="1.000000" fill-rule="nonzero"/>
		<path id="Vector (Stroke)" d="M100.38 26.05L110.91 26.05L110.91 27.81L100.38 27.81L100.38 26.05Z" fill="#202124" fill-opacity="1.000000" fill-rule="evenodd"/>
	</g>
</svg>
