<svg width="144.000000" height="40.000000" viewBox="0 0 144 40" fill="none" xmlns="http://www.w3.org/2000/svg" xmlns:xlink="http://www.w3.org/1999/xlink">
	<desc>
			Created with Pixso.
	</desc>
	<defs>
		<clipPath id="clip25_770">
			<rect id="Frame" width="144.000000" height="40.000000" fill="white" fill-opacity="0"/>
		</clipPath>
	</defs>
	<rect id="Frame" width="144.000000" height="40.000000" fill="#FFFFFF" fill-opacity="0"/>
	<g clip-path="url(#clip25_770)">
		<path id="Vector" d="M96 10.7L144 10.7L138.91 29.85L90.91 29.85L96 10.7Z" fill="#B41308" fill-opacity="1.000000" fill-rule="nonzero"/>
		<path id="Vector" d="M16.71 27.04L20.3 13.63L29.78 13.63L28.92 16.89L23.16 16.89L20.43 27.04L16.71 27.04Z" fill="#FFFFFF" fill-opacity="1.000000" fill-rule="nonzero"/>
		<path id="Vector" d="M27.31 27.04L30.92 13.63L35.32 13.63C37.44 13.63 38.98 14.1 39.92 15.05C40.63 15.75 40.98 16.66 40.98 17.79C40.98 19.43 40.37 20.75 39.14 21.73C37.92 22.7 36.31 23.19 34.3 23.19L32.09 23.19L31.05 27.04L27.31 27.04ZM32.86 20.29L34.26 20.29C35.17 20.29 35.88 20.11 36.39 19.74C36.9 19.36 37.16 18.85 37.16 18.21C37.16 17.84 37.03 17.52 36.77 17.27C36.43 16.92 35.9 16.75 35.18 16.75L33.8 16.75L32.86 20.29Z" fill="#FFFFFF" fill-opacity="1.000000" fill-rule="nonzero"/>
		<path id="Vector" d="M37.68 27.04L47.03 13.53L50.68 13.53L52.77 27.04L48.85 27.04L48.53 24.64L43.34 24.64L41.73 27.04L37.68 27.04ZM45.22 21.75L48.22 21.75L47.74 17.9L45.22 21.75Z" fill="#FFFFFF" fill-opacity="1.000000" fill-rule="nonzero"/>
		<path id="Vector" d="M53.37 27.04L56.98 13.63L60.73 13.63L59.36 18.65L64.11 18.65L65.45 13.63L69.19 13.63L65.58 27.04L61.84 27.04L63.22 21.94L58.48 21.94L57.12 27.04L53.37 27.04Z" fill="#FFFFFF" fill-opacity="1.000000" fill-rule="nonzero"/>
		<path id="Vector" d="M70.65 27.04L73.39 16.89L69.36 16.89L70.25 13.63L82.02 13.63L81.15 16.89L77.12 16.89L74.39 27.04L70.65 27.04Z" fill="#FFFFFF" fill-opacity="1.000000" fill-rule="nonzero"/>
		<mask id="mask25_778" mask-type="alpha" maskUnits="userSpaceOnUse" x="0.000000" y="0.000000" width="30.561890" height="38.632050">
			<path id="Vector" d="M12.76 38.63C10.16 37.62 7.81 36.08 5.84 34.11C3.88 32.14 2.34 29.79 1.34 27.2C0.34 24.61 -0.11 21.83 0.02 19.06C0.15 16.28 0.86 13.57 2.1 11.08C3.34 8.59 5.09 6.39 7.23 4.61C9.37 2.84 11.86 1.53 14.53 0.76C17.21 0 20.02 -0.2 22.78 0.18C25.54 0.56 28.19 1.51 30.56 2.97L20.04 20L12.76 38.63Z" fill="#FFFFFF" fill-opacity="1.000000" fill-rule="nonzero"/>
		</mask>
		<g mask="url(#mask25_778)">
			<path id="Vector" d="M22.56 8.85C20.93 8.34 19.2 8.21 17.52 8.46C15.83 8.72 14.22 9.35 12.81 10.31C11.4 11.27 10.23 12.54 9.39 14.02C8.54 15.5 8.04 17.15 7.93 18.85C7.81 20.55 8.08 22.25 8.72 23.83C9.36 25.41 10.35 26.82 11.62 27.96C12.88 29.1 14.39 29.95 16.03 30.42L15.08 33.67C12.95 33.05 10.99 31.95 9.34 30.47C7.7 28.98 6.41 27.15 5.58 25.09C4.75 23.04 4.4 20.83 4.55 18.62C4.7 16.41 5.34 14.26 6.45 12.34C7.55 10.42 9.07 8.77 10.9 7.52C12.73 6.27 14.82 5.45 17.01 5.12C19.21 4.79 21.45 4.96 23.57 5.62C25.68 6.28 27.63 7.41 29.24 8.93L26.92 11.39C25.68 10.22 24.19 9.36 22.56 8.85Z" fill="#FFFFFF" fill-opacity="1.000000" fill-rule="evenodd"/>
			<path id="Vector" d="M0.5 17.98C0.48 17.36 0.97 16.84 1.59 16.82L4.98 16.73C5.6 16.71 6.12 17.2 6.14 17.82L6.27 22.33C6.29 22.95 5.8 23.47 5.17 23.48L1.78 23.58C1.16 23.6 0.64 23.11 0.62 22.49L0.5 17.98Z" fill="#FFFFFF" fill-opacity="1.000000" fill-rule="nonzero"/>
			<path id="Vector" d="M6.79 5.3C7.21 4.85 7.93 4.82 8.39 5.24L10.88 7.53C11.34 7.95 11.37 8.66 10.94 9.12L7.88 12.44C7.46 12.89 6.75 12.92 6.29 12.5L3.79 10.21C3.34 9.79 3.31 9.08 3.73 8.62L6.79 5.3Z" fill="#FFFFFF" fill-opacity="1.000000" fill-rule="nonzero"/>
			<path id="Vector" d="M19.96 0.67C20.58 0.61 21.14 1.06 21.2 1.68L21.55 5.04C21.61 5.66 21.16 6.22 20.54 6.28L16.05 6.74C15.43 6.81 14.87 6.36 14.81 5.74L14.46 2.37C14.4 1.76 14.85 1.2 15.47 1.14L19.96 0.67Z" fill="#FFFFFF" fill-opacity="1.000000" fill-rule="nonzero"/>
			<path id="Vector" d="M32.71 5.74C33.22 6.1 33.34 6.81 32.98 7.31L31.03 10.08C30.67 10.59 29.97 10.71 29.46 10.35L25.77 7.75C25.26 7.39 25.13 6.69 25.49 6.18L27.45 3.42C27.81 2.91 28.51 2.79 29.02 3.15L32.71 5.74Z" fill="#FFFFFF" fill-opacity="1.000000" fill-rule="nonzero"/>
			<path id="Vector" d="M4.26 31.59C3.81 31.16 3.8 30.44 4.24 30L6.6 27.58C7.04 27.13 7.75 27.12 8.2 27.56L11.43 30.7C11.88 31.14 11.89 31.85 11.45 32.3L9.09 34.72C8.65 35.16 7.94 35.17 7.49 34.74L4.26 31.59Z" fill="#FFFFFF" fill-opacity="1.000000" fill-rule="nonzero"/>
		</g>
		<path id="Vector" d="M100.82 25.53C99.94 25.53 99.19 25.29 98.59 24.8C97.99 24.3 97.69 23.63 97.69 22.79C97.69 21.69 98.1 20.83 98.92 20.19C99.74 19.54 100.8 19.21 102.11 19.21C103.19 19.21 104.37 19.39 105.62 19.75L105.7 19.5C105.77 19.14 105.81 18.84 105.81 18.6C105.81 17.27 104.92 16.6 103.14 16.6C102.21 16.6 101.27 16.78 100.34 17.12L100.07 15.88C101.13 15.47 102.23 15.26 103.37 15.26C104.61 15.26 105.57 15.54 106.25 16.09C106.93 16.62 107.27 17.38 107.27 18.35C107.27 18.74 107.21 19.2 107.08 19.71L105.58 25.32L104.12 25.32L104.52 23.77C103.51 24.94 102.28 25.53 100.82 25.53ZM101.3 24.36C102.16 24.36 102.96 24.09 103.7 23.54C104.45 22.99 104.95 22.29 105.18 21.43L105.37 20.74C104.27 20.45 103.2 20.3 102.16 20.3C101.29 20.3 100.58 20.52 100.03 20.95C99.48 21.39 99.21 21.94 99.21 22.62C99.21 23.14 99.39 23.56 99.76 23.88C100.15 24.2 100.66 24.36 101.3 24.36Z" fill="#FFFFFF" fill-opacity="1.000000" fill-rule="nonzero"/>
		<path id="Vector" d="M107.56 25.32L110.23 15.42L114.55 15.42C115.52 15.42 116.28 15.63 116.84 16.05C117.39 16.46 117.66 17.01 117.66 17.72C117.66 18.38 117.42 18.94 116.95 19.38C116.48 19.82 115.86 20.12 115.11 20.28C115.63 20.41 116.07 20.66 116.41 21.03C116.76 21.4 116.93 21.85 116.93 22.39C116.93 23.26 116.55 23.97 115.8 24.52C115.06 25.05 114.03 25.32 112.73 25.32L107.56 25.32ZM109.39 24.11L112.65 24.11C113.51 24.11 114.18 23.95 114.67 23.63C115.16 23.32 115.41 22.87 115.41 22.29C115.41 21.83 115.21 21.48 114.8 21.22C114.4 20.97 113.88 20.84 113.25 20.84L110.27 20.84L109.39 24.11ZM110.54 19.69L113.38 19.69C114.21 19.69 114.87 19.53 115.36 19.21C115.86 18.89 116.11 18.46 116.11 17.91C116.11 17.06 115.48 16.64 114.22 16.64L111.36 16.64L110.54 19.69Z" fill="#FFFFFF" fill-opacity="1.000000" fill-rule="nonzero"/>
		<path id="Vector" d="M119.95 25.32L122.27 16.7L118.7 16.7L119.04 15.44L127.61 15.44L127.26 16.7L123.75 16.7L121.42 25.32L119.95 25.32Z" fill="#FFFFFF" fill-opacity="1.000000" fill-rule="nonzero"/>
		<path id="Vector" d="M131.16 25.55C129.82 25.55 128.73 25.13 127.9 24.3C127.06 23.47 126.65 22.41 126.65 21.11C126.65 19.55 127.22 18.18 128.38 16.99C129.54 15.8 130.91 15.21 132.48 15.21C133.84 15.21 134.94 15.62 135.77 16.45C136.6 17.28 137.02 18.34 137.02 19.63C137.02 21.21 136.43 22.6 135.25 23.79C134.08 24.96 132.72 25.55 131.16 25.55ZM131.25 24.23C132.37 24.23 133.35 23.77 134.21 22.85C135.07 21.92 135.5 20.86 135.5 19.69C135.5 18.69 135.21 17.91 134.63 17.35C134.07 16.79 133.32 16.51 132.39 16.51C131.26 16.51 130.27 16.98 129.41 17.93C128.57 18.86 128.14 19.91 128.14 21.07C128.14 22.05 128.43 22.82 128.99 23.39C129.57 23.95 130.32 24.23 131.25 24.23Z" fill="#FFFFFF" fill-opacity="1.000000" fill-rule="nonzero"/>
		<path id="Vector (Stroke)" d="M80.75 20.84L89.22 20.84L89.22 22.25L80.75 22.25L80.75 20.84Z" fill="#FFFFFF" fill-opacity="1.000000" fill-rule="evenodd"/>
	</g>
</svg>
