<svg width="25.602783" height="26.333130" viewBox="0 0 25.6028 26.3331" fill="none" xmlns="http://www.w3.org/2000/svg" xmlns:xlink="http://www.w3.org/1999/xlink">
	<desc>
			Created with Pixso.
	</desc>
	<defs/>
	<path id="Vector 4" d="M1.01 11.01C0.9 10.12 1.59 9.33 2.5 9.33L23.1 9.33C24 9.33 24.7 10.12 24.59 11.01L23.02 23.58C22.89 24.58 22.04 25.33 21.03 25.33L4.56 25.33C3.55 25.33 2.7 24.58 2.58 23.58L1.01 11.01Z" stroke="currentColor" stroke-opacity="1.000000" stroke-width="2.000000"/>
	<path id="Vector 20" d="M4.8 9.33L20.8 9.33L14.31 1.77C13.52 0.84 12.08 0.84 11.28 1.77L4.8 9.33Z" stroke="currentColor" stroke-opacity="1.000000" stroke-width="2.000000"/>
	<path id="Vector 17" d="M6.8 13.99L6.8 20.66" stroke="currentColor" stroke-opacity="1.000000" stroke-width="2.000000" stroke-linecap="round"/>
	<path id="Vector 18" d="M12.8 13.99L12.8 20.66" stroke="currentColor" stroke-opacity="1.000000" stroke-width="2.000000" stroke-linecap="round"/>
	<path id="Vector 19" d="M18.8 13.99L18.8 20.66" stroke="currentColor" stroke-opacity="1.000000" stroke-width="2.000000" stroke-linecap="round"/>
</svg>
