<svg width="24.000000" height="21.000000" viewBox="0 0 24 21" fill="none" xmlns="http://www.w3.org/2000/svg" xmlns:xlink="http://www.w3.org/1999/xlink">
	<desc>
			Created with Pixso.
	</desc>
	<defs/>
	<path id="heart_icon" d="M12 2.22L11.7 1.94C9.02 -0.65 4.68 -0.65 2 1.94C-0.67 4.53 -0.67 8.73 2 11.32L12 21L21.99 11.32C24.66 8.73 24.66 4.53 21.99 1.94C19.31 -0.65 14.97 -0.65 12.29 1.94L12 2.22ZM12 18.21L20.6 9.89Q21.35 9.16 21.7 8.27Q22 7.51 22 6.63Q22 5.76 21.7 5Q21.35 4.11 20.6 3.38Q19.94 2.74 19.16 2.4Q18.23 2 17.14 2Q16.04 2 15.12 2.4Q14.34 2.74 13.68 3.38L12 5.01L10.31 3.38Q9.65 2.74 8.87 2.4Q7.95 2 6.85 2Q5.76 2 4.83 2.4Q4.05 2.74 3.39 3.38Q2.64 4.11 2.29 5Q2 5.76 2 6.63Q2 7.51 2.29 8.27Q2.64 9.16 3.39 9.89L12 18.21Z" fill="currentColor" fill-opacity="1.000000" fill-rule="evenodd"/>
</svg>
