<svg width="40.000000" height="40.000000" viewBox="0 0 40 40" fill="none"
	xmlns="http://www.w3.org/2000/svg"
	xmlns:xlink="http://www.w3.org/1999/xlink">
	<desc>
			Created with Pixso.
	</desc>
	<defs/>
	<path id="Vector" d="M19.99 23.8C16.31 23.8 13.33 20.82 13.33 17.14C13.33 13.46 16.31 10.47 19.99 10.47C23.68 10.47 26.66 13.46 26.66 17.14C26.66 20.82 23.68 23.8 19.99 23.8Z" stroke="currentColor" stroke-opacity="1.000000" stroke-width="1.500000"/>
	<path id="Ellipse 33" d="M8.77 35.23Q8.77 33.3 9.72 31.54Q10.63 29.86 12.26 28.58Q13.88 27.31 15.97 26.62Q18.12 25.91 20.47 25.91Q22.82 25.91 24.97 26.62Q27.06 27.31 28.68 28.58Q30.32 29.86 31.22 31.54Q32.17 33.3 32.17 35.23L30.67 35.23Q30.67 33.68 29.9 32.25Q29.15 30.85 27.75 29.76Q26.34 28.66 24.5 28.05Q22.58 27.41 20.47 27.41Q18.36 27.41 16.44 28.05Q14.6 28.66 13.19 29.76Q11.8 30.85 11.04 32.25Q10.27 33.68 10.27 35.23L8.77 35.23ZM32.15 35.21L32.17 35.23C32.17 35.65 31.84 35.98 31.42 35.98C31 35.98 30.67 35.65 30.67 35.23L30.69 35.21L32.15 35.21ZM10.25 35.21L10.27 35.23C10.27 35.65 9.94 35.98 9.52 35.98C9.1 35.98 8.77 35.65 8.77 35.23L8.79 35.21L10.25 35.21Z" fill="currentColor" fill-opacity="1.000000" fill-rule="evenodd"/>
</svg>
