<svg width="9.774002" height="8.099991" viewBox="0 0 9.774 8.09999" fill="none" xmlns="http://www.w3.org/2000/svg" xmlns:xlink="http://www.w3.org/1999/xlink">
	<desc>
			Created with Pixso.
	</desc>
	<defs/>
	<path id="Vector" d="M0.67 3.48C3.29 2.34 5.04 1.59 5.92 1.22C8.41 0.18 8.93 0 9.27 6.1e-5C9.35 -0.01 9.51 0.01 9.62 0.1C9.71 0.17 9.74 0.27 9.75 0.34C9.76 0.41 9.78 0.57 9.76 0.7C9.63 2.12 9.04 5.57 8.75 7.17C8.62 7.84 8.37 8.07 8.13 8.09C7.61 8.14 7.21 7.75 6.7 7.41C5.91 6.89 5.46 6.57 4.7 6.06C3.81 5.48 4.38 5.16 4.89 4.63C5.02 4.49 7.32 2.4 7.37 2.21C7.38 2.19 7.38 2.1 7.33 2.05C7.27 2 7.2 2.02 7.14 2.03C7.06 2.05 5.8 2.89 3.34 4.54C2.99 4.79 2.66 4.91 2.37 4.9C2.05 4.89 1.43 4.72 0.97 4.57C0.41 4.39 -0.04 4.29 0 3.98C0.02 3.82 0.24 3.65 0.67 3.48Z" fill="#FFFFFF" fill-opacity="1.000000" fill-rule="evenodd"/>
</svg>
